<svg width="1365" height="1365" viewBox="0 0 1365 1365" fill="none" xmlns="http://www.w3.org/2000/svg">
<rect width="1365" height="1365" fill="white"/>
<path d="M447.406 750.096C447.406 780.292 454.024 805.11 467.261 824.551C480.497 843.579 502.213 853.092 532.409 853.092C544.818 853.092 557.641 851.438 570.878 848.129C584.528 844.82 601.28 839.235 621.135 831.376L644.092 895.904C621.756 905.832 601.074 912.864 582.046 917C563.432 921.136 545.439 923.205 528.066 923.205C493.32 923.205 464.158 915.759 440.581 900.868C417.417 885.977 400.044 865.502 388.462 839.442C376.88 813.383 371.089 783.601 371.089 750.096V661.37C371.089 627.865 376.88 598.083 388.462 572.023C400.044 545.964 417.417 525.695 440.581 511.218C464.158 496.327 493.32 488.881 528.066 488.881C545.025 488.881 562.605 490.95 580.805 495.086C599.005 498.809 618.86 505.427 640.369 514.941L617.412 580.71C598.385 572.851 582.46 567.266 569.637 563.957C556.814 560.648 544.405 558.994 532.409 558.994C502.213 558.994 480.497 568.507 467.261 587.535C454.024 606.562 447.406 631.174 447.406 661.37V750.096Z" fill="black"/>
<path d="M917.737 750.096C917.737 780.292 911.118 805.11 897.882 824.551C884.645 843.579 862.929 853.092 832.733 853.092C820.324 853.092 807.501 851.438 794.265 848.129C780.615 844.82 763.862 839.235 744.007 831.376L721.05 895.904C743.387 905.832 764.069 912.864 783.097 917C801.71 921.136 819.704 923.205 837.077 923.205C871.823 923.205 900.984 915.759 924.562 900.868C947.726 885.977 965.099 865.502 976.681 839.442C988.263 813.383 994.053 783.601 994.053 750.096V661.37C994.053 627.865 988.263 598.083 976.681 572.023C965.099 545.964 947.726 525.695 924.562 511.218C900.984 496.327 871.823 488.881 837.077 488.881C820.117 488.881 802.538 490.95 784.337 495.086C766.137 498.809 746.282 505.427 724.773 514.941L747.73 580.71C766.758 572.851 782.683 567.266 795.506 563.957C808.329 560.648 820.738 558.994 832.733 558.994C862.929 558.994 884.645 568.507 897.882 587.535C911.118 606.562 917.737 631.174 917.737 661.37V750.096Z" fill="black"/>
<path d="M586.421 626.972L634.649 626.972L634.649 634.382L586.421 634.382L586.421 626.972ZM642.686 630.74C642.686 629.295 643.178 628.05 644.162 627.003C645.146 625.978 646.329 625.465 647.71 625.465C649.092 625.465 650.274 625.978 651.258 627.003C652.242 628.05 652.734 629.295 652.734 630.74C652.734 632.184 652.242 633.419 651.258 634.445C650.274 635.491 649.092 636.015 647.71 636.015C646.329 636.015 645.146 635.491 644.162 634.445C643.178 633.419 642.686 632.184 642.686 630.74ZM586.421 648.958L650.724 648.958L650.724 656.368L626.987 656.368L626.987 656.996C627.825 657.541 628.892 658.294 630.19 659.257C631.509 660.241 632.681 661.643 633.707 663.464C634.753 665.306 635.277 667.797 635.277 670.937C635.277 674.998 634.261 678.577 632.231 681.675C630.201 684.773 627.322 687.191 623.596 688.928C619.871 690.666 615.475 691.534 610.409 691.534C605.302 691.534 600.875 690.666 597.128 688.928C593.402 687.191 590.513 684.784 588.462 681.707C586.432 678.63 585.416 675.082 585.416 671.063C585.416 667.965 585.929 665.484 586.955 663.621C588.002 661.758 589.184 660.325 590.503 659.32C591.843 658.315 592.952 657.541 593.831 656.996L593.831 656.117L586.421 656.117L586.421 648.958ZM610.535 656.243C606.893 656.243 603.68 656.777 600.896 657.844C598.133 658.912 595.966 660.471 594.396 662.522C592.847 664.574 592.073 667.086 592.073 670.058C592.073 673.156 592.889 675.741 594.522 677.813C596.175 679.906 598.394 681.476 601.178 682.523C603.983 683.59 607.102 684.124 610.535 684.124C613.926 684.124 616.982 683.601 619.703 682.554C622.445 681.529 624.612 679.969 626.202 677.876C627.814 675.804 628.62 673.198 628.62 670.058C628.62 667.044 627.856 664.511 626.328 662.46C624.821 660.408 622.707 658.859 619.986 657.813C617.285 656.766 614.135 656.243 610.535 656.243ZM585.416 723.089C585.416 718.442 586.442 714.434 588.493 711.064C590.566 707.715 593.454 705.13 597.159 703.308C600.885 701.508 605.218 700.608 610.158 700.608C615.098 700.608 619.452 701.508 623.22 703.308C627.008 705.13 629.96 707.662 632.074 710.907C634.209 714.172 635.277 717.982 635.277 722.336C635.277 724.848 634.858 727.328 634.021 729.777C633.183 732.226 631.823 734.455 629.939 736.465C628.076 738.474 625.606 740.076 622.529 741.269C619.452 742.462 615.663 743.058 611.163 743.058L608.023 743.058L608.023 705.883L614.428 705.883L614.428 735.523C617.149 735.523 619.577 734.979 621.713 733.89C623.848 732.823 625.533 731.295 626.768 729.306C628.003 727.338 628.62 725.015 628.62 722.336C628.62 719.384 627.888 716.831 626.422 714.675C624.978 712.539 623.094 710.896 620.771 709.745C618.447 708.594 615.956 708.018 613.298 708.018L609.028 708.018C605.386 708.018 602.298 708.646 599.765 709.902C597.253 711.179 595.338 712.948 594.019 715.208C592.722 717.469 592.073 720.096 592.073 723.089C592.073 725.036 592.345 726.794 592.889 728.364C593.454 729.955 594.292 731.326 595.401 732.477C596.531 733.629 597.934 734.518 599.608 735.146L597.599 742.305C595.171 741.551 593.036 740.285 591.194 738.506C589.373 736.726 587.949 734.529 586.924 731.912C585.919 729.296 585.416 726.355 585.416 723.089ZM586.421 754.33L634.649 754.33L634.649 761.489L627.364 761.489L627.364 761.991C629.75 762.871 631.687 764.461 633.173 766.764C634.659 769.066 635.402 771.662 635.402 774.551C635.402 775.095 635.392 775.775 635.371 776.592C635.35 777.408 635.318 778.025 635.277 778.444L627.741 778.444C627.804 778.193 627.898 777.617 628.024 776.717C628.17 775.838 628.243 774.907 628.243 773.923C628.243 771.578 627.751 769.485 626.768 767.643C625.805 765.822 624.465 764.378 622.749 763.31C621.053 762.264 619.117 761.74 616.94 761.74L586.421 761.74L586.421 754.33Z" fill="black"/>
<path d="M744.962 631.903L770.711 631.903L770.711 638.595L727.154 638.595L727.154 631.903L734.527 631.903L734.527 631.449C732.315 630.428 730.434 628.84 728.884 626.685C727.353 624.53 726.587 621.808 726.587 618.518C726.587 615.796 727.182 613.376 728.373 611.259C729.583 609.141 731.398 607.478 733.818 606.268C736.257 605.058 739.329 604.453 743.034 604.453L770.711 604.453L770.711 611.145L743.488 611.145C740.312 611.145 737.779 612.034 735.888 613.811C733.998 615.607 733.052 617.894 733.052 620.673C733.052 622.337 733.478 624.029 734.328 625.749C735.179 627.489 736.484 628.944 738.242 630.116C740 631.307 742.24 631.903 744.962 631.903ZM785.23 657.545L727.154 657.545L727.154 650.853L785.23 650.853L785.23 657.545ZM770.711 688.745L765.039 688.745L765.039 666.173L770.711 666.173L770.711 688.745ZM781.146 672.751L781.146 679.444L739.631 679.444C737.741 679.444 736.323 679.718 735.378 680.266C734.451 680.833 733.827 681.552 733.506 682.421C733.204 683.31 733.052 684.246 733.052 685.229C733.052 685.966 733.09 686.571 733.166 687.043C733.26 687.516 733.336 687.894 733.393 688.178L727.381 689.539C727.211 689.085 727.041 688.452 726.87 687.639C726.681 686.826 726.587 685.796 726.587 684.548C726.587 682.658 726.993 680.805 727.806 678.99C728.619 677.194 729.857 675.701 731.521 674.51C733.185 673.337 735.283 672.751 737.816 672.751L781.146 672.751ZM744.962 726.262L770.711 726.262L770.711 732.954L727.154 732.954L727.154 726.262L734.527 726.262L734.527 725.808C732.315 724.787 730.434 723.199 728.884 721.044C727.353 718.889 726.587 716.166 726.587 712.877C726.587 710.155 727.182 707.735 728.373 705.617C729.583 703.5 731.398 701.837 733.818 700.627C736.257 699.417 739.329 698.812 743.034 698.812L770.711 698.812L770.711 705.504L743.488 705.504C740.312 705.504 737.779 706.393 735.888 708.17C733.998 709.966 733.052 712.253 733.052 715.032C733.052 716.696 733.478 718.388 734.328 720.108C735.179 721.847 736.484 723.303 738.242 724.475C740 725.666 742.24 726.262 744.962 726.262ZM727.154 745.211L770.711 745.211L770.711 751.677L764.132 751.677L764.132 752.13C766.287 752.924 768.036 754.361 769.378 756.441C770.72 758.52 771.391 760.864 771.391 763.473C771.391 763.965 771.382 764.579 771.363 765.317C771.344 766.054 771.316 766.612 771.278 766.99L764.472 766.99C764.529 766.763 764.614 766.243 764.727 765.43C764.86 764.636 764.926 763.795 764.926 762.906C764.926 760.789 764.482 758.898 763.593 757.235C762.723 755.59 761.514 754.286 759.963 753.321C758.432 752.376 756.683 751.904 754.717 751.904L727.154 751.904L727.154 745.211ZM726.133 787.74C726.133 784.98 726.653 782.475 727.693 780.225C728.752 777.976 730.273 776.189 732.258 774.866C734.262 773.543 736.682 772.881 739.518 772.881C742.013 772.881 744.036 773.372 745.586 774.355C747.155 775.338 748.384 776.652 749.273 778.297C750.161 779.942 750.823 781.757 751.258 783.742C751.711 785.746 752.071 787.759 752.335 789.782C752.676 792.428 752.931 794.574 753.101 796.219C753.29 797.882 753.602 799.092 754.037 799.849C754.472 800.624 755.228 801.011 756.305 801.011L756.532 801.011C759.33 801.011 761.504 800.246 763.054 798.714C764.604 797.202 765.38 794.905 765.38 791.823C765.38 788.629 764.68 786.124 763.281 784.309C761.882 782.494 760.389 781.218 758.801 780.481L761.069 774.129C763.716 775.263 765.777 776.775 767.251 778.666C768.745 780.575 769.784 782.655 770.37 784.904C770.975 787.173 771.278 789.404 771.278 791.597C771.278 792.996 771.108 794.602 770.767 796.417C770.446 798.251 769.775 800.019 768.754 801.72C767.733 803.44 766.193 804.868 764.132 806.002C762.071 807.136 759.311 807.704 755.852 807.704L727.154 807.704L727.154 801.011L733.052 801.011L733.052 800.671C732.107 800.217 731.096 799.461 730.018 798.402C728.941 797.344 728.024 795.935 727.267 794.177C726.511 792.419 726.133 790.273 726.133 787.74ZM732.145 788.761C732.145 791.408 732.665 793.638 733.705 795.453C734.744 797.287 736.087 798.667 737.731 799.593C739.376 800.539 741.106 801.011 742.921 801.011L749.046 801.011C748.706 800.728 748.394 800.104 748.11 799.14C747.845 798.194 747.609 797.098 747.401 795.85C747.212 794.621 747.042 793.421 746.891 792.249C746.758 791.096 746.645 790.16 746.55 789.441C746.324 787.702 745.955 786.076 745.444 784.564C744.953 783.071 744.206 781.861 743.204 780.934C742.221 780.027 740.879 779.573 739.178 779.573C736.852 779.573 735.094 780.433 733.903 782.154C732.731 783.893 732.145 786.095 732.145 788.761Z" fill="black"/>
</svg>
